<svg id="Capa_1" enable-background="new 0 0 512 512" height="512" viewBox="0 0 512 512" width="512" xmlns="http://www.w3.org/2000/svg"><g><path d="m429.687 231.205c17.616-13.248 21.313-27.001 21.313-36.205s-3.697-22.957-21.313-36.206c-6.059-4.557-8.135-12.305-5.166-19.282 8.632-20.281 4.957-34.041.354-42.012-4.569-7.916-14.637-17.882-36.648-20.412-7.68-.883-13.433-6.635-14.315-14.316-2.532-22.012-12.498-32.079-20.412-36.647-7.972-4.603-21.731-8.277-42.013.355-6.979 2.97-14.725.892-19.282-5.167-13.249-17.615-27.001-21.313-36.205-21.313s-22.956 3.698-36.206 21.313c-4.557 6.059-12.304 8.135-19.28 5.167-20.281-8.631-34.041-4.958-42.013-.355-7.915 4.569-17.881 14.636-20.413 36.649-.882 7.68-6.635 13.432-14.314 14.315-22.012 2.529-32.08 12.496-36.649 20.411-4.603 7.972-8.277 21.731.354 42.013 2.969 6.976.893 14.725-5.166 19.282-17.616 13.248-21.313 27.001-21.313 36.205s3.697 22.957 21.313 36.206c6.059 4.557 8.135 12.305 5.166 19.282-8.632 20.281-4.957 34.041-.354 42.012 4.569 7.916 14.637 17.882 36.648 20.412 7.68.883 13.433 6.635 14.315 14.316 1.285 11.178 4.489 19.271 8.367 25.132l-54.628 75.876c-3.289 4.568-3.744 10.593-1.178 15.603 2.567 5.01 7.722 8.161 13.351 8.161h50.729l25.854 51.708c2.532 5.066 7.703 8.273 13.367 8.292h.049c5.645 0 10.813-3.17 13.372-8.204l48.629-95.687 48.628 95.687c2.559 5.035 7.726 8.204 13.372 8.204h.049c5.664-.019 10.835-3.226 13.367-8.292l25.855-51.708h50.729c5.629 0 10.784-3.151 13.351-8.161 2.566-5.01 2.111-11.035-1.178-15.603l-54.628-75.876c3.878-5.861 7.082-13.955 8.368-25.133.882-7.68 6.635-13.432 14.314-14.315 22.012-2.529 32.079-12.496 36.648-20.411 4.603-7.972 8.277-21.731-.354-42.013-2.969-6.977-.893-14.726 5.166-19.283zm-235.578 232.472-16.693-33.385c-2.54-5.082-7.734-8.292-13.416-8.292h-30.718l38.613-53.632c7.484 1.004 16.974.108 28.617-4.848 6.98-2.968 14.726-.891 19.282 5.167 5.065 6.735 10.204 11.43 15.134 14.667zm153.891-41.677c-5.682 0-10.876 3.21-13.416 8.292l-16.693 33.385-40.819-80.323c4.93-3.237 10.069-7.933 15.135-14.667 4.557-6.059 12.305-8.135 19.28-5.167 11.644 4.956 21.134 5.852 28.618 4.848l38.613 53.632zm63.655-214.771c-17.016 12.797-23.076 35.416-14.738 55.006 2.909 6.838 3.631 12.402 1.978 15.266-1.544 2.674-6.813 4.77-14.094 5.607-21.489 2.47-38.224 19.204-40.692 40.692-.838 7.282-2.934 12.551-5.608 14.095-2.864 1.652-8.428.932-15.265-1.978-19.59-8.338-42.21-2.277-55.005 14.738-4.468 5.939-8.925 9.345-12.231 9.345s-7.763-3.406-12.229-9.345c-12.862-17.102-35.512-23.036-55.007-14.739-6.836 2.91-12.398 3.631-15.265 1.978-2.674-1.543-4.77-6.813-5.606-14.093-2.47-21.49-19.204-38.224-40.693-40.694-7.281-.837-12.55-2.933-14.094-5.607-1.653-2.863-.932-8.427 1.978-15.264 8.338-19.591 2.277-42.21-14.738-55.006-5.94-4.467-9.346-8.925-9.346-12.23s3.406-7.763 9.345-12.229c17.016-12.797 23.076-35.416 14.738-55.006-2.909-6.838-3.631-12.402-1.978-15.266 1.544-2.674 6.813-4.77 14.094-5.607 21.489-2.47 38.224-19.204 40.692-40.692.838-7.282 2.934-12.551 5.608-14.095 2.861-1.653 8.426-.933 15.265 1.978 19.591 8.338 42.21 2.277 55.005-14.738 4.468-5.939 8.925-9.345 12.231-9.345s7.763 3.406 12.229 9.345c12.796 17.016 35.417 23.078 55.007 14.739 6.836-2.91 12.398-3.63 15.265-1.978 2.674 1.543 4.77 6.813 5.606 14.093 2.47 21.49 19.204 38.224 40.693 40.694 7.281.837 12.55 2.933 14.094 5.607 1.653 2.863.932 8.427-1.978 15.264-8.338 19.591-2.277 42.21 14.738 55.006 5.94 4.467 9.346 8.925 9.346 12.23s-3.406 7.763-9.345 12.229z"/><path d="m256 75c-66.168 0-120 53.832-120 120s53.832 120 120 120 120-53.832 120-120-53.832-120-120-120zm0 210c-49.626 0-90-40.374-90-90s40.374-90 90-90 90 40.374 90 90-40.374 90-90 90z"/></g></svg>