<svg id="Capa_1" enable-background="new 0 0 512 512" height="512" viewBox="0 0 512 512" width="512" xmlns="http://www.w3.org/2000/svg"><g id="XMLID_856_"><path id="XMLID_1676_" d="m415.454 6.081c-2.829-3.825-7.304-6.081-12.06-6.081h-110.253c-6.592 0-12.412 4.304-14.343 10.607l-22.798 74.435-22.798-74.434c-1.931-6.304-7.751-10.608-14.343-10.608h-110.253c-4.757 0-9.231 2.256-12.061 6.081-2.828 3.824-3.675 8.764-2.282 13.312l77.013 251.446c-30.935 24.855-50.776 62.981-50.776 105.661 0 74.715 60.785 135.5 135.5 135.5s135.5-60.785 135.5-135.5c0-42.68-19.841-80.806-50.776-105.662l77.013-251.446c1.392-4.547.545-9.487-2.283-13.311zm-159.454 475.919c-58.173 0-105.5-47.327-105.5-105.5s47.327-105.5 105.5-105.5 105.5 47.327 105.5 105.5-47.327 105.5-105.5 105.5zm-48.234-452 32.546 106.262-35.108 114.627c-2.583 1.048-5.129 2.168-7.63 3.368l-68.685-224.257zm48.234 211c-5.656 0-11.231.354-16.707 1.03l64.941-212.03h78.877l-68.685 224.258c-17.7-8.495-37.517-13.258-58.426-13.258z"/><path id="XMLID_1685_" d="m256 301.25c-41.493 0-75.25 33.757-75.25 75.25s33.757 75.25 75.25 75.25 75.25-33.757 75.25-75.25-33.757-75.25-75.25-75.25zm0 120.5c-24.951 0-45.25-20.299-45.25-45.25s20.299-45.25 45.25-45.25 45.25 20.299 45.25 45.25-20.299 45.25-45.25 45.25z"/></g></svg>